# xmcd
#
# Track frame offsets:
#	150
#	5250
#	25200
#	40500
#	42375
#	61575
#	81675
#	102825
#	120750
#	122475
#	140850
#	155925
#	174975
#	194025
#	195600
#
# Disc length: 2887 seconds
#
# Revision: 11
# Processed by: cddbd v1.5.2PL0 Copyright (c) Steve Scherf et al.
# Submitted via: EZCDAudioConverter 7.1.7.1
#
DISCID=c70b450f
DTITLE=林俊杰 - 第二天堂
DYEAR=2004
DGENRE=
TTITLE0=一开始。。。
TTITLE1=第二天堂
TTITLE2=子弹列车
TTITLE3=起床了
TTITLE4=豆浆油条
TTITLE5=江南
TTITLE6=害怕
TTITLE7=天使心
TTITLE8=森林浴
TTITLE9=精灵
TTITLE10=相信无限
TTITLE11=美人鱼
TTITLE12=距离
TTITLE13=未完成
TTITLE14=Endless Road
EXTD=
EXTT0=
EXTT1=
EXTT2=
EXTT3=
EXTT4=
EXTT5=
EXTT6=
EXTT7=
EXTT8=
EXTT9=
EXTT10=
EXTT11=
EXTT12=
EXTT13=
EXTT14=
PLAYORDER=
